<mxfile host="app.diagrams.net" modified="2024-05-09T15:10:11.883Z" agent="Mozilla/5.0 (Windows NT 10.0; Win64; x64) AppleWebKit/537.36 (KHTML, like Gecko) Chrome/124.0.0.0 Safari/537.36" etag="pJ7iSm_FUl2ztgtUgjvF" version="24.2.7" type="device">
  <diagram name="Page-1" id="lbMJy8OAsuc6XckqobpL">
    <mxGraphModel dx="1050" dy="565" grid="1" gridSize="10" guides="1" tooltips="1" connect="1" arrows="1" fold="1" page="1" pageScale="1" pageWidth="850" pageHeight="1100" math="0" shadow="0">
      <root>
        <mxCell id="0" />
        <mxCell id="1" parent="0" />
        <mxCell id="dOXiezgElLnSAzFcXBMj-10" style="edgeStyle=orthogonalEdgeStyle;rounded=0;orthogonalLoop=1;jettySize=auto;html=1;entryX=0;entryY=0.5;entryDx=0;entryDy=0;" parent="1" source="dOXiezgElLnSAzFcXBMj-1" target="dOXiezgElLnSAzFcXBMj-2" edge="1">
          <mxGeometry relative="1" as="geometry" />
        </mxCell>
        <mxCell id="VD9g9H4wedfudL-IatUZ-1" style="edgeStyle=orthogonalEdgeStyle;rounded=0;orthogonalLoop=1;jettySize=auto;html=1;exitX=0.75;exitY=1;exitDx=0;exitDy=0;entryX=0;entryY=0.5;entryDx=0;entryDy=0;endArrow=none;endFill=0;" parent="1" source="dOXiezgElLnSAzFcXBMj-1" target="dOXiezgElLnSAzFcXBMj-3" edge="1">
          <mxGeometry relative="1" as="geometry" />
        </mxCell>
        <mxCell id="dOXiezgElLnSAzFcXBMj-1" value="Client" style="rounded=1;whiteSpace=wrap;html=1;" parent="1" vertex="1">
          <mxGeometry x="40" y="190" width="120" height="60" as="geometry" />
        </mxCell>
        <mxCell id="dOXiezgElLnSAzFcXBMj-11" style="edgeStyle=orthogonalEdgeStyle;rounded=0;orthogonalLoop=1;jettySize=auto;html=1;exitX=0.25;exitY=1;exitDx=0;exitDy=0;entryX=0.25;entryY=0;entryDx=0;entryDy=0;" parent="1" source="dOXiezgElLnSAzFcXBMj-2" target="dOXiezgElLnSAzFcXBMj-3" edge="1">
          <mxGeometry relative="1" as="geometry" />
        </mxCell>
        <mxCell id="dOXiezgElLnSAzFcXBMj-14" style="edgeStyle=orthogonalEdgeStyle;rounded=0;orthogonalLoop=1;jettySize=auto;html=1;exitX=1;exitY=0.5;exitDx=0;exitDy=0;entryX=0;entryY=0.5;entryDx=0;entryDy=0;" parent="1" source="dOXiezgElLnSAzFcXBMj-2" target="dOXiezgElLnSAzFcXBMj-4" edge="1">
          <mxGeometry relative="1" as="geometry" />
        </mxCell>
        <mxCell id="dOXiezgElLnSAzFcXBMj-15" style="edgeStyle=orthogonalEdgeStyle;rounded=0;orthogonalLoop=1;jettySize=auto;html=1;exitX=1;exitY=0.75;exitDx=0;exitDy=0;entryX=0;entryY=0.5;entryDx=0;entryDy=0;" parent="1" source="dOXiezgElLnSAzFcXBMj-2" target="dOXiezgElLnSAzFcXBMj-5" edge="1">
          <mxGeometry relative="1" as="geometry" />
        </mxCell>
        <mxCell id="UdEc0v5OBDcaHXoOMGrd-2" style="edgeStyle=orthogonalEdgeStyle;rounded=0;orthogonalLoop=1;jettySize=auto;html=1;exitX=0.5;exitY=0;exitDx=0;exitDy=0;" parent="1" source="dOXiezgElLnSAzFcXBMj-2" target="UdEc0v5OBDcaHXoOMGrd-1" edge="1">
          <mxGeometry relative="1" as="geometry" />
        </mxCell>
        <mxCell id="dOXiezgElLnSAzFcXBMj-2" value="API Gateway" style="rounded=1;whiteSpace=wrap;html=1;" parent="1" vertex="1">
          <mxGeometry x="220" y="190" width="120" height="60" as="geometry" />
        </mxCell>
        <mxCell id="dOXiezgElLnSAzFcXBMj-12" style="edgeStyle=orthogonalEdgeStyle;rounded=0;orthogonalLoop=1;jettySize=auto;html=1;exitX=0.75;exitY=0;exitDx=0;exitDy=0;entryX=0.75;entryY=1;entryDx=0;entryDy=0;" parent="1" source="dOXiezgElLnSAzFcXBMj-3" target="dOXiezgElLnSAzFcXBMj-2" edge="1">
          <mxGeometry relative="1" as="geometry" />
        </mxCell>
        <mxCell id="dOXiezgElLnSAzFcXBMj-3" value="Auth Server&lt;div&gt;(Keycloak)&lt;/div&gt;" style="rounded=1;whiteSpace=wrap;html=1;" parent="1" vertex="1">
          <mxGeometry x="220" y="330" width="120" height="60" as="geometry" />
        </mxCell>
        <mxCell id="UdEc0v5OBDcaHXoOMGrd-3" style="edgeStyle=orthogonalEdgeStyle;rounded=0;orthogonalLoop=1;jettySize=auto;html=1;exitX=0.25;exitY=0;exitDx=0;exitDy=0;entryX=1;entryY=0.5;entryDx=0;entryDy=0;" parent="1" source="dOXiezgElLnSAzFcXBMj-4" target="UdEc0v5OBDcaHXoOMGrd-1" edge="1">
          <mxGeometry relative="1" as="geometry" />
        </mxCell>
        <mxCell id="dOXiezgElLnSAzFcXBMj-4" value="Prescription Service" style="rounded=1;whiteSpace=wrap;html=1;" parent="1" vertex="1">
          <mxGeometry x="425" y="140" width="120" height="60" as="geometry" />
        </mxCell>
        <mxCell id="UdEc0v5OBDcaHXoOMGrd-7" style="edgeStyle=orthogonalEdgeStyle;rounded=0;orthogonalLoop=1;jettySize=auto;html=1;exitX=0.25;exitY=1;exitDx=0;exitDy=0;entryX=0;entryY=0.5;entryDx=0;entryDy=0;" parent="1" source="dOXiezgElLnSAzFcXBMj-5" target="UdEc0v5OBDcaHXoOMGrd-1" edge="1">
          <mxGeometry relative="1" as="geometry">
            <Array as="points">
              <mxPoint x="455" y="550" />
              <mxPoint x="30" y="550" />
              <mxPoint x="30" y="90" />
            </Array>
          </mxGeometry>
        </mxCell>
        <mxCell id="dOXiezgElLnSAzFcXBMj-5" value="Stock Service" style="rounded=1;whiteSpace=wrap;html=1;" parent="1" vertex="1">
          <mxGeometry x="425" y="280" width="120" height="60" as="geometry" />
        </mxCell>
        <mxCell id="xv2cqytiTFVtk2XZl88n-4" style="edgeStyle=orthogonalEdgeStyle;rounded=0;orthogonalLoop=1;jettySize=auto;html=1;exitX=1;exitY=0;exitDx=0;exitDy=71.25;exitPerimeter=0;endArrow=none;endFill=0;" edge="1" parent="1" source="dOXiezgElLnSAzFcXBMj-7" target="xv2cqytiTFVtk2XZl88n-2">
          <mxGeometry relative="1" as="geometry">
            <Array as="points">
              <mxPoint x="730" y="189" />
              <mxPoint x="730" y="245" />
            </Array>
          </mxGeometry>
        </mxCell>
        <mxCell id="dOXiezgElLnSAzFcXBMj-7" value="Prescription&lt;div&gt;DB&lt;/div&gt;&lt;div&gt;(master - read/write )&lt;/div&gt;" style="shape=cylinder3;whiteSpace=wrap;html=1;boundedLbl=1;backgroundOutline=1;size=15;" parent="1" vertex="1">
          <mxGeometry x="590" y="117.5" width="120" height="105" as="geometry" />
        </mxCell>
        <mxCell id="dOXiezgElLnSAzFcXBMj-8" value="Stock&lt;div&gt;DB&lt;/div&gt;" style="shape=cylinder3;whiteSpace=wrap;html=1;boundedLbl=1;backgroundOutline=1;size=15;" parent="1" vertex="1">
          <mxGeometry x="600" y="270" width="60" height="80" as="geometry" />
        </mxCell>
        <mxCell id="dOXiezgElLnSAzFcXBMj-20" style="edgeStyle=orthogonalEdgeStyle;rounded=0;orthogonalLoop=1;jettySize=auto;html=1;exitX=1;exitY=1;exitDx=0;exitDy=-15;exitPerimeter=0;" parent="1" source="dOXiezgElLnSAzFcXBMj-9" target="dOXiezgElLnSAzFcXBMj-4" edge="1">
          <mxGeometry relative="1" as="geometry">
            <Array as="points">
              <mxPoint x="480" y="66" />
            </Array>
          </mxGeometry>
        </mxCell>
        <mxCell id="dOXiezgElLnSAzFcXBMj-9" value="Kafka" style="shape=cylinder3;whiteSpace=wrap;html=1;boundedLbl=1;backgroundOutline=1;size=15;rotation=-181;horizontal=0;" parent="1" vertex="1">
          <mxGeometry x="880" y="50.1" width="70" height="370.1" as="geometry" />
        </mxCell>
        <mxCell id="dOXiezgElLnSAzFcXBMj-16" style="edgeStyle=orthogonalEdgeStyle;rounded=0;orthogonalLoop=1;jettySize=auto;html=1;exitX=1;exitY=0.5;exitDx=0;exitDy=0;entryX=0;entryY=0.5;entryDx=0;entryDy=0;entryPerimeter=0;" parent="1" source="dOXiezgElLnSAzFcXBMj-4" target="dOXiezgElLnSAzFcXBMj-7" edge="1">
          <mxGeometry relative="1" as="geometry" />
        </mxCell>
        <mxCell id="dOXiezgElLnSAzFcXBMj-17" style="edgeStyle=orthogonalEdgeStyle;rounded=0;orthogonalLoop=1;jettySize=auto;html=1;exitX=1;exitY=0.5;exitDx=0;exitDy=0;entryX=0;entryY=0.5;entryDx=0;entryDy=0;entryPerimeter=0;" parent="1" source="dOXiezgElLnSAzFcXBMj-5" target="dOXiezgElLnSAzFcXBMj-8" edge="1">
          <mxGeometry relative="1" as="geometry" />
        </mxCell>
        <mxCell id="dOXiezgElLnSAzFcXBMj-19" style="edgeStyle=orthogonalEdgeStyle;rounded=0;orthogonalLoop=1;jettySize=auto;html=1;exitX=0.5;exitY=1;exitDx=0;exitDy=0;entryX=1;entryY=0;entryDx=0;entryDy=15;entryPerimeter=0;" parent="1" source="dOXiezgElLnSAzFcXBMj-5" target="dOXiezgElLnSAzFcXBMj-9" edge="1">
          <mxGeometry relative="1" as="geometry">
            <Array as="points">
              <mxPoint x="485" y="406" />
            </Array>
          </mxGeometry>
        </mxCell>
        <mxCell id="dOXiezgElLnSAzFcXBMj-21" value="User&lt;div&gt;DB&lt;/div&gt;" style="shape=cylinder3;whiteSpace=wrap;html=1;boundedLbl=1;backgroundOutline=1;size=15;" parent="1" vertex="1">
          <mxGeometry x="250" y="450" width="60" height="80" as="geometry" />
        </mxCell>
        <mxCell id="dOXiezgElLnSAzFcXBMj-22" style="edgeStyle=orthogonalEdgeStyle;rounded=0;orthogonalLoop=1;jettySize=auto;html=1;exitX=0.5;exitY=1;exitDx=0;exitDy=0;entryX=0.5;entryY=0;entryDx=0;entryDy=0;entryPerimeter=0;" parent="1" source="dOXiezgElLnSAzFcXBMj-3" target="dOXiezgElLnSAzFcXBMj-21" edge="1">
          <mxGeometry relative="1" as="geometry" />
        </mxCell>
        <mxCell id="UdEc0v5OBDcaHXoOMGrd-5" style="edgeStyle=orthogonalEdgeStyle;rounded=0;orthogonalLoop=1;jettySize=auto;html=1;exitX=0.75;exitY=1;exitDx=0;exitDy=0;entryX=0.75;entryY=0;entryDx=0;entryDy=0;" parent="1" source="UdEc0v5OBDcaHXoOMGrd-1" target="dOXiezgElLnSAzFcXBMj-2" edge="1">
          <mxGeometry relative="1" as="geometry" />
        </mxCell>
        <mxCell id="UdEc0v5OBDcaHXoOMGrd-1" value="Eureka&lt;div&gt;(Registry)&lt;/div&gt;" style="rounded=1;whiteSpace=wrap;html=1;" parent="1" vertex="1">
          <mxGeometry x="220" y="60" width="120" height="60" as="geometry" />
        </mxCell>
        <mxCell id="xv2cqytiTFVtk2XZl88n-1" value="Prescription&lt;div&gt;DB&lt;/div&gt;&lt;div&gt;(slave - read only)&lt;/div&gt;" style="shape=cylinder3;whiteSpace=wrap;html=1;boundedLbl=1;backgroundOutline=1;size=15;" vertex="1" parent="1">
          <mxGeometry x="740" y="90" width="100" height="90" as="geometry" />
        </mxCell>
        <mxCell id="xv2cqytiTFVtk2XZl88n-2" value="Prescription&lt;div&gt;DB&lt;/div&gt;&lt;div&gt;(slave - read only)&lt;/div&gt;" style="shape=cylinder3;whiteSpace=wrap;html=1;boundedLbl=1;backgroundOutline=1;size=15;" vertex="1" parent="1">
          <mxGeometry x="740" y="200" width="100" height="90" as="geometry" />
        </mxCell>
        <mxCell id="xv2cqytiTFVtk2XZl88n-3" style="edgeStyle=orthogonalEdgeStyle;rounded=0;orthogonalLoop=1;jettySize=auto;html=1;exitX=1;exitY=0;exitDx=0;exitDy=33.75;exitPerimeter=0;entryX=0;entryY=0;entryDx=0;entryDy=30;entryPerimeter=0;endArrow=none;endFill=0;" edge="1" parent="1" source="dOXiezgElLnSAzFcXBMj-7" target="xv2cqytiTFVtk2XZl88n-1">
          <mxGeometry relative="1" as="geometry" />
        </mxCell>
      </root>
    </mxGraphModel>
  </diagram>
</mxfile>
